<svg height="512" viewBox="0 0 512 512" width="512" xmlns="http://www.w3.org/2000/svg"><g id="filled_outline" data-name="filled outline"><path d="m24 144h464a0 0 0 0 1 0 0v296a24 24 0 0 1 -24 24h-416a24 24 0 0 1 -24-24v-296a0 0 0 0 1 0 0z" fill="#ebebeb"/><path d="m120 224h80v152h-80z" fill="#fbb540"/><path d="m120 312h80v64h-80z" fill="#ea9d2d"/><path d="m48 80h416a24 24 0 0 1 24 24v40a0 0 0 0 1 0 0h-464a0 0 0 0 1 0 0v-40a24 24 0 0 1 24-24z" fill="#009cf7"/><rect fill="#cbcbcb" height="64" rx="16" width="32" x="240" y="48"/><rect fill="#cbcbcb" height="64" rx="16" width="32" x="112" y="48"/><rect fill="#cbcbcb" height="64" rx="16" width="32" x="368" y="48"/><path d="m72 224h48v152h-48z" fill="#d18d28"/><path d="m160 336a16 16 0 0 1 16 16v24a0 0 0 0 1 0 0h-32a0 0 0 0 1 0 0v-24a16 16 0 0 1 16-16z" fill="#f55648"/><path d="m168 288h-16a8 8 0 0 1 0-16h16a8 8 0 0 1 0 16z" fill="#ebebeb"/><path d="m168 264h-16a8 8 0 0 1 0-16h16a8 8 0 0 1 0 16z" fill="#ebebeb"/><path d="m112 192h64v32h-64z" fill="#ea9d2d"/><path d="m88 248h16v16h-16z" fill="#ebebeb"/><path d="m88 280h16v16h-16z" fill="#ebebeb"/><path d="m88 312h16v16h-16z" fill="#ebebeb"/><path d="m72 352h48v24h-48z" fill="#c38325"/><g fill="#accadc"><circle cx="272" cy="232" r="24"/><circle cx="352" cy="232" r="24"/><circle cx="432" cy="232" r="24"/><circle cx="272" cy="312" r="24"/><path d="m352 344a32.057 32.057 0 0 1 -30.178-21.334l15.086-5.332a16.01 16.01 0 0 0 30.184 0l15.086 5.332a32.057 32.057 0 0 1 -30.178 21.334z"/><circle cx="432" cy="312" r="24"/><circle cx="272" cy="392" r="24"/><circle cx="352" cy="392" r="24"/><circle cx="432" cy="392" r="24"/></g><path d="m320 168h72v16h-72z" fill="#cbcbcb"/><path d="m352 320a8 8 0 0 1 -5.657-2.343l-16-16a8 8 0 0 1 11.314-11.314l9.806 9.805 34.391-41.269a8 8 0 0 1 12.292 10.242l-40 48a8 8 0 0 1 -5.784 2.871c-.121.008-.242.008-.362.008z" fill="#007af6"/><path d="m104 400h16v16h-16z" fill="#cbcbcb"/><path d="m136 400h16v16h-16z" fill="#cbcbcb"/><path d="m168 400h16v16h-16z" fill="#cbcbcb"/><path d="m112 192h8v32h-8z" fill="#c38325"/><path d="m464 72h-56v-8a24 24 0 0 0 -48 0v8h-80v-8a24 24 0 0 0 -48 0v8h-80v-8a24 24 0 0 0 -48 0v8h-56a32.036 32.036 0 0 0 -32 32v336a32.036 32.036 0 0 0 32 32h416a32.036 32.036 0 0 0 32-32v-336a32.036 32.036 0 0 0 -32-32zm-88-8a8 8 0 0 1 16 0v32a8 8 0 0 1 -16 0zm-128 0a8 8 0 0 1 16 0v32a8 8 0 0 1 -16 0zm-128 0a8 8 0 0 1 16 0v32a8 8 0 0 1 -16 0zm360 376a16.019 16.019 0 0 1 -16 16h-416a16.019 16.019 0 0 1 -16-16v-288h448zm0-304h-448v-32a16.019 16.019 0 0 1 16-16h56v8a24 24 0 0 0 48 0v-8h80v8a24 24 0 0 0 48 0v-8h80v8a24 24 0 0 0 48 0v-8h56a16.019 16.019 0 0 1 16 16z"/><path d="m152 288h16a8 8 0 0 0 0-16h-16a8 8 0 0 0 0 16z"/><path d="m152 264h16a8 8 0 0 0 0-16h-16a8 8 0 0 0 0 16z"/><path d="m88 248h16v16h-16z"/><path d="m88 280h16v16h-16z"/><path d="m88 312h16v16h-16z"/><path d="m72 384h128a8 8 0 0 0 8-8v-152a8 8 0 0 0 -8-8h-16v-24a8 8 0 0 0 -8-8h-64a8 8 0 0 0 -8 8v24h-32a8 8 0 0 0 -8 8v152a8 8 0 0 0 8 8zm96-16h-16v-16a8 8 0 0 1 16 0zm24 0h-8v-16a24 24 0 0 0 -48 0v16h-8v-48h64zm0-136v72h-64v-72zm-72-32h48v16h-48zm-40 32h32v112h-32zm0 128h32v8h-32z"/><path d="m272 264a32 32 0 1 0 -32-32 32.036 32.036 0 0 0 32 32zm0-48a16 16 0 1 1 -16 16 16.019 16.019 0 0 1 16-16z"/><path d="m352 264a32 32 0 1 0 -32-32 32.036 32.036 0 0 0 32 32zm0-48a16 16 0 1 1 -16 16 16.019 16.019 0 0 1 16-16z"/><path d="m432 264a32 32 0 1 0 -32-32 32.036 32.036 0 0 0 32 32zm0-48a16 16 0 1 1 -16 16 16.019 16.019 0 0 1 16-16z"/><path d="m272 344a32 32 0 1 0 -32-32 32.036 32.036 0 0 0 32 32zm0-48a16 16 0 1 1 -16 16 16.019 16.019 0 0 1 16-16z"/><path d="m352 328a16.03 16.03 0 0 1 -15.092-10.666l-15.086 5.332a32.011 32.011 0 0 0 60.356 0l-15.086-5.332a16.03 16.03 0 0 1 -15.092 10.666z"/><path d="m432 280a32 32 0 1 0 32 32 32.036 32.036 0 0 0 -32-32zm0 48a16 16 0 1 1 16-16 16.019 16.019 0 0 1 -16 16z"/><path d="m272 424a32 32 0 1 0 -32-32 32.036 32.036 0 0 0 32 32zm0-48a16 16 0 1 1 -16 16 16.019 16.019 0 0 1 16-16z"/><path d="m352 424a32 32 0 1 0 -32-32 32.036 32.036 0 0 0 32 32zm0-48a16 16 0 1 1 -16 16 16.019 16.019 0 0 1 16-16z"/><path d="m432 360a32 32 0 1 0 32 32 32.036 32.036 0 0 0 -32-32zm0 48a16 16 0 1 1 16-16 16.019 16.019 0 0 1 -16 16z"/><path d="m320 168h72v16h-72z"/><path d="m385.854 258.879-34.391 41.269-9.806-9.805a8 8 0 0 0 -11.314 11.314l16 16a8 8 0 0 0 5.657 2.343c.12 0 .241 0 .362-.008a8 8 0 0 0 5.784-2.871l40-48a8 8 0 0 0 -12.292-10.242z"/><path d="m104 400h16v16h-16z"/><path d="m136 400h16v16h-16z"/><path d="m168 400h16v16h-16z"/></g></svg>