<svg id="Capa_1" enable-background="new 0 0 501 501" height="512" viewBox="0 0 501 501" width="512" xmlns="http://www.w3.org/2000/svg"><g><path d="m490 250.922c-.228 135.116-109.831 244.578-245 244.578-77.248 0-146.146-35.75-191.051-91.609v-128.161c0-28.969-23.484-52.454-52.454-52.454 13.545-122.52 117.434-217.81 243.573-217.776 135.022.037 245.159 110.4 244.932 245.422z" fill="#f19b0b"/><path d="m490 250.5c0 1.95-.023 3.895-.068 5.833-26.896 76.55-99.821 131.431-185.564 131.431-108.597 0-196.632-88.035-196.632-196.632 0-85.743 54.881-158.667 131.431-185.564 1.938-.045 3.883-.068 5.833-.068 135.31 0 245 109.69 245 245z" fill="#f5c02c"/><path d="m281.552 152.035-10.697 96.491h8.938v139.239h-48.764-133.478v-148.362h75.514c21.246 0 39.836-14.287 45.304-34.818l21.902-82.238c1.744-6.549 8.467-10.444 15.016-8.7 17.043 4.541 28.208 20.858 26.265 38.388z" fill="#a95947"/><path d="m201.5 294.5c0-4.143 3.357-7.5 7.5-7.5 34.463 0 62.5-28.037 62.5-62.5 0-4.143 3.357-7.5 7.5-7.5s7.5 3.357 7.5 7.5c0 42.733-34.767 77.5-77.5 77.5-4.143 0-7.5-3.357-7.5-7.5zm-95.242 93.265h172.742v-33.265h-172.742z" fill="#7d402d"/><path d="m106.258 239.403v148.362c0 8.906-7.22 16.126-16.126 16.126h-36.183c-33.751-41.985-53.949-95.329-53.949-153.391 0-9.202.507-18.285 1.496-27.224h88.636c8.907 0 16.126 7.221 16.126 16.127z" fill="#01bff9"/><path d="m106.258 371.639v16.126c0 8.906-7.22 16.126-16.126 16.126h-36.183c-11.906-14.81-22.125-31.034-30.366-48.379h66.549c8.907 0 16.126 7.22 16.126 16.127z" fill="#05a2f9"/><path d="m74.006 407.746v-188.325c0-6.777 5.494-12.271 12.271-12.271h23.836c6.777 0 12.271 5.494 12.271 12.271v188.325c0 6.777-5.494 12.271-12.271 12.271h-23.836c-6.777.001-12.271-5.494-12.271-12.271z" fill="#91cefb"/><path d="m74.006 359.367v-139.946c0-6.777 5.494-12.271 12.271-12.271h23.836c6.777 0 12.271 5.494 12.271 12.271v139.946c0 6.777-5.494 12.271-12.271 12.271h-23.836c-6.777.001-12.271-5.494-12.271-12.271z" fill="#c7eefd"/><path d="m476.457 116.536v12.271h2.454c5.422 0 9.817 4.395 9.817 9.817v17.18c0 5.422-4.395 9.817-9.817 9.817h-2.454v245.429c0 10.166-8.241 18.407-18.407 18.407h-184.071c-10.166 0-18.407-8.241-18.407-18.407v-368.143c0-10.166 8.241-18.407 18.407-18.407h184.071c10.166 0 18.407 8.241 18.407 18.407v36.814h2.454c5.422 0 9.817 4.395 9.817 9.817v17.18c0 5.422-4.395 9.817-9.817 9.817h-2.454z" fill="#00429a"/><path d="m310.793 429.457h-36.814c-10.166 0-18.407-8.241-18.407-18.407v-368.143c0-10.166 8.241-18.407 18.407-18.407h36.814c-10.166 0-18.407 8.241-18.407 18.407v368.143c0 10.166 8.241 18.407 18.407 18.407zm79.764-392.686h-49.086c-3.389 0-6.136 2.747-6.136 6.136s2.747 6.136 6.136 6.136h49.086c3.389 0 6.136-2.747 6.136-6.136s-2.747-6.136-6.136-6.136zm-12.271 368.143c0 6.777-5.494 12.271-12.271 12.271s-12.271-5.494-12.271-12.271 5.494-12.271 12.271-12.271 12.271 5.494 12.271 12.271z" fill="#003278"/><path d="m451.914 67.45v294.514c0 3.389-2.747 6.136-6.136 6.136h-159.528c-3.389 0-6.136-2.747-6.136-6.136v-294.514c0-3.389 2.747-6.136 6.136-6.136h159.529c3.388 0 6.135 2.747 6.135 6.136z" fill="#fdf7bd"/><path d="m316.916 213.669v-122.745h98.196v122.745z" fill="#f52c2c"/><path d="m316.916 213.669v-122.745h16.01v122.745z" fill="#c92c2c"/><path d="m338.937 154.965h-1.347c-5.523 0-10-4.477-10-10v-22.694c0-5.523 4.477-10 10-10h1.347c5.523 0 10 4.477 10 10v22.694c0 5.523-4.477 10-10 10zm68.704-10v-22.694c0-5.523-4.477-10-10-10h-1.347c-5.523 0-10 4.477-10 10v22.694c0 5.523 4.477 10 10 10h1.347c5.523 0 10-4.477 10-10zm-29.352 0v-22.694c0-5.523-4.477-10-10-10h-1.347c-5.523 0-10 4.477-10 10v22.694c0 5.523 4.477 10 10 10h1.347c5.523 0 10-4.477 10-10z" fill="#f5dc90"/><path d="m332.927 122.608c0-2.761 2.239-5 5-5h.674c2.761 0 5 2.239 5 5 0 .186-.151.336-.336.336h-10.001c-.187 0-.337-.15-.337-.336zm0 6.01v16.011c0 2.761 2.239 5 5 5h.674c2.761 0 5-2.239 5-5v-16.011c0-.186-.151-.336-.336-.336h-10.001c-.187-.001-.337.15-.337.336zm69.377-6.01c0-2.761-2.239-5-5-5h-.674c-2.761 0-5 2.239-5 5 0 .186.151.336.336.336h10.001c.187 0 .337-.15.337-.336zm-10.673 6.01v16.011c0 2.761 2.239 5 5 5h.674c2.761 0 5-2.239 5-5v-16.011c0-.186-.151-.336-.336-.336h-10.001c-.187-.001-.337.15-.337.336zm-18.679-6.01c0-2.761-2.239-5-5-5h-.674c-2.761 0-5 2.239-5 5 0 .186.151.336.336.336h10.001c.187 0 .337-.15.337-.336zm-10.673 6.01v16.011c0 2.761 2.239 5 5 5h.674c2.761 0 5-2.239 5-5v-16.011c0-.186-.151-.336-.336-.336h-10.001c-.187-.001-.337.15-.337.336z" fill="#172a7d"/><path d="m406.04 189.654v24.015h-37.357v-24.015c0-10.316 8.363-18.679 18.679-18.679s18.678 8.363 18.678 18.679zm-61.373-18.679c-10.316 0-18.679 8.363-18.679 18.679v24.015h37.357v-24.015c.001-10.316-8.362-18.679-18.678-18.679z" fill="#fd9898"/><path d="m400.703 189.654v24.015h-26.683v-24.015c0-7.369 5.973-13.342 13.342-13.342 7.368 0 13.341 5.973 13.341 13.342zm-56.036-13.342c-7.369 0-13.342 5.973-13.342 13.342v24.015h26.684v-24.015c0-7.369-5.973-13.342-13.342-13.342z" fill="#99302b"/><path d="m417.05 100.51h-102.071c-2.761 0-5-2.239-5-5v-6.01c0-2.761 2.239-5 5-5h102.071c2.761 0 5 2.239 5 5v6.01c0 2.762-2.239 5-5 5zm5 54.792v-6.01c0-2.761-2.239-5-5-5h-102.071c-2.761 0-5 2.239-5 5v6.01c0 2.761 2.239 5 5 5h102.071c2.761 0 5-2.239 5-5zm0 58.704v-.673c0-2.761-2.239-5-5-5h-102.071c-2.761 0-5 2.239-5 5v.673c0 2.761 2.239 5 5 5h102.071c2.761 0 5-2.239 5-5z" fill="#ed6161"/><path d="m417.05 100.51h-84.46c-2.761 0-5-2.239-5-5v-6.01c0-2.761 2.239-5 5-5h84.46c2.761 0 5 2.239 5 5v6.01c0 2.762-2.239 5-5 5zm5 54.792v-6.01c0-2.761-2.239-5-5-5h-84.46c-2.761 0-5 2.239-5 5v6.01c0 2.761 2.239 5 5 5h84.46c2.761 0 5-2.239 5-5zm0 58.704v-.673c0-2.761-2.239-5-5-5h-84.46c-2.761 0-5 2.239-5 5v.673c0 2.761 2.239 5 5 5h84.46c2.761 0 5-2.239 5-5z" fill="#fd7a7a"/><path d="m375.957 165.638h-16.684c-2.761 0-5-2.239-5-5v-6.01c0-2.761 2.239-5 5-5h16.684c2.761 0 5 2.239 5 5v6.01c0 2.762-2.238 5-5 5z" fill="#fff5f5"/><path d="m492.641 241.805c4.932 2.252 8.359 7.227 8.359 13.002v16.855c0 5.775-3.427 10.75-8.359 13.002 4.932 2.252 8.359 7.227 8.359 13.002v16.855c0 5.775-3.427 10.75-8.359 13.002 4.931 2.252 8.359 7.227 8.359 13.002v16.855c0 7.89-6.396 14.287-14.287 14.287h-32.328c-12.23 0-22.754-9.398-23.331-21.616-.493-10.461 6.096-19.459 15.384-22.612-8.538-3.031-14.938-10.795-15.384-20.248-.493-10.461 6.096-19.459 15.384-22.612-8.538-3.031-14.938-10.795-15.384-20.248-.493-10.461 6.096-19.459 15.384-22.612-8.538-3.03-14.938-10.795-15.384-20.247-.615-13.043 9.779-23.813 22.688-23.813h32.97c7.89 0 14.287 6.396 14.287 14.287v16.855c.001 5.777-3.426 10.752-8.358 13.004z" fill="#a95947"/><path d="m327.85 242.117-4.002 3.901c-.193.188-.281.458-.235.723l.945 5.508c.114.667-.586 1.176-1.186.861l-4.947-2.601c-.238-.125-.522-.125-.76 0l-4.947 2.601c-.599.315-1.3-.194-1.186-.861l.945-5.508c.045-.265-.042-.535-.235-.723l-4.002-3.901c-.485-.473-.218-1.296.453-1.394l5.53-.804c.266-.039.496-.206.615-.447l2.473-5.011c.3-.607 1.166-.607 1.466 0l2.473 5.011c.119.241.349.408.615.447l5.53.804c.672.097.939.921.455 1.394zm23.531-1.394-5.53-.804c-.266-.039-.496-.206-.615-.447l-2.473-5.011c-.3-.607-1.166-.607-1.465 0l-2.473 5.011c-.119.241-.349.408-.615.447l-5.53.804c-.67.097-.938.921-.453 1.394l4.002 3.901c.193.188.281.458.235.723l-.945 5.508c-.115.667.586 1.176 1.186.861l4.946-2.601c.238-.125.522-.125.761 0l4.946 2.601c.6.315 1.3-.194 1.186-.861l-.945-5.508c-.046-.265.042-.535.235-.723l4.002-3.901c.483-.473.216-1.297-.455-1.394zm23.985 0-5.53-.804c-.266-.039-.496-.206-.615-.447l-2.473-5.011c-.3-.607-1.166-.607-1.466 0l-2.473 5.011c-.119.241-.349.408-.615.447l-5.53.804c-.67.097-.938.921-.453 1.394l4.002 3.901c.193.188.281.458.235.723l-.945 5.508c-.115.667.586 1.176 1.186.861l4.947-2.601c.238-.125.522-.125.76 0l4.947 2.601c.599.315 1.3-.194 1.186-.861l-.945-5.508c-.045-.265.042-.535.235-.723l4.002-3.901c.483-.473.215-1.297-.455-1.394zm24.437 1.394c.485-.473.217-1.296-.453-1.394l-5.531-.804c-.266-.039-.496-.206-.615-.447l-2.473-5.011c-.3-.607-1.166-.607-1.465 0l-2.473 5.011c-.119.241-.349.408-.615.447l-5.531.804c-.67.097-.938.921-.453 1.394l4.002 3.901c.192.188.28.458.235.723l-.945 5.508c-.115.667.586 1.176 1.186.861l4.947-2.601c.238-.125.522-.125.76 0l4.947 2.601c.599.315 1.3-.194 1.186-.861l-.945-5.508c-.045-.265.042-.535.235-.723z" fill="#fcb30b"/><path d="m414.716 234.461 2.473 5.011c.119.241.349.408.615.447l5.53.804c.67.097.938.921.453 1.394l-4.002 3.901c-.193.188-.28.458-.235.723l.945 5.508c.114.667-.586 1.176-1.186.861l-4.946-2.601c-.238-.125-.522-.125-.76 0l-4.946 2.601c-.599.315-1.3-.194-1.186-.861l.945-5.508c.045-.265-.042-.536-.235-.723l-4.002-3.901c-.485-.473-.217-1.296.453-1.394l5.53-.804c.266-.039.496-.206.615-.447l2.473-5.011c.3-.607 1.166-.607 1.466 0zm-89.121 50.039h80.838c2.761 0 5-2.239 5-5v-5c0-2.761-2.239-5-5-5h-80.838c-2.761 0-5 2.239-5 5v5c0 2.761 2.239 5 5 5zm18.405 25h44.029c2.761 0 5-2.239 5-5v-5c0-2.761-2.239-5-5-5h-44.029c-2.761 0-5 2.239-5 5v5c0 2.761 2.239 5 5 5z" fill="#f3d373"/><path d="m340.595 334.5c0-5.523 4.477-10 10-10h30.838c5.523 0 10 4.477 10 10 0 5.523-4.477 10-10 10h-30.838c-5.522 0-10-4.477-10-10z" fill="#f52c2c"/><path d="m500.651 337.372c.229 1.015.349 2.07.349 3.154v16.855c0 7.89-6.396 14.287-14.287 14.287h-32.328c-12.23 0-22.754-9.398-23.331-21.616-.22-4.674.973-9.057 3.19-12.756 4.114 6.759 11.723 11.21 20.141 11.21h32.328c6.808 0 12.502-4.76 13.938-11.134zm-13.938-116.997h-32.328c-8.509 0-16.192-4.549-20.274-11.432-2.131 3.651-3.272 7.951-3.057 12.531.446 9.452 6.846 17.217 15.384 20.247 2.292-.778 4.749-1.2 7.304-1.2h32.97c2.115 0 4.122.46 5.928 1.284 4.932-2.252 8.359-7.227 8.359-13.002v-16.855c0-1.004-.104-1.984-.301-2.93-1.35 6.485-7.098 11.357-13.985 11.357zm13.986 74.362c-1.352 6.485-7.1 11.357-13.986 11.357h-32.328c-8.509 0-16.192-4.549-20.274-11.432-2.131 3.651-3.272 7.951-3.057 12.531.446 9.452 6.846 17.217 15.384 20.248 2.292-.778 4.749-1.201 7.304-1.201h32.97c2.115 0 4.122.46 5.928 1.284 4.931-2.252 8.359-7.227 8.359-13.002v-16.855c.001-1.005-.103-1.984-.3-2.93zm-13.986-32.145h-32.328c-8.377 0-15.954-4.41-20.081-11.114-2.254 3.72-3.472 8.139-3.249 12.854.446 9.452 6.846 17.217 15.384 20.248 2.292-.778 4.749-1.201 7.304-1.201h32.97c2.115 0 4.122.46 5.928 1.284 4.932-2.252 8.359-7.227 8.359-13.002v-16.855c0-1.118-.129-2.207-.372-3.25-1.471 6.324-7.143 11.036-13.915 11.036z" fill="#954d3b"/><path d="m476.457 290.523v15.999c0 3.945-3.198 7.143-7.143 7.143h-8.855c-7.89 0-14.287-6.396-14.287-14.286v-1.712c0-7.89 6.396-14.287 14.287-14.287h8.855c3.945 0 7.143 3.198 7.143 7.143zm-7.143 35.716h-8.855c-7.89 0-14.287 6.396-14.287 14.287v1.712c0 7.89 6.396 14.286 14.287 14.286h8.855c3.945 0 7.143-3.198 7.143-7.143v-15.999c0-3.944-3.198-7.143-7.143-7.143zm0-85.718h-8.855c-7.89 0-14.287 6.396-14.287 14.287v1.712c0 7.89 6.396 14.287 14.287 14.287h8.855c3.945 0 7.143-3.198 7.143-7.143v-15.999c0-3.946-3.198-7.144-7.143-7.144zm0-42.86h-8.855c-7.89 0-14.287 6.396-14.287 14.286v1.712c0 7.89 6.396 14.287 14.287 14.287h8.855c3.945 0 7.143-3.198 7.143-7.143v-15.999c0-3.945-3.198-7.143-7.143-7.143z" fill="#e1a595"/><path d="m260.175 135.863 7.093 12.97c.123.225.308.41.533.533l12.97 7.093c.929.508.929 1.843 0 2.351l-12.97 7.093c-.225.123-.41.308-.533.533l-7.093 12.97c-.508.929-1.843.929-2.351 0l-7.093-12.97c-.123-.225-.308-.41-.533-.533l-12.97-7.093c-.929-.508-.929-1.843 0-2.351l12.97-7.093c.225-.123.41-.308.533-.533l7.093-12.97c.509-.93 1.843-.93 2.351 0z" fill="#fff5f5"/><path d="m177.491 175.204 7.165 13.101c.124.227.311.414.538.538l13.101 7.165c.939.513.939 1.861 0 2.375l-13.101 7.165c-.227.124-.414.311-.538.538l-7.165 13.101c-.513.939-1.861.939-2.375 0l-7.165-13.101c-.124-.227-.311-.414-.538-.538l-13.101-7.165c-.939-.513-.939-1.861 0-2.375l13.101-7.165c.227-.124.414-.311.538-.538l7.165-13.101c.514-.939 1.862-.939 2.375 0z" fill="#fdf7bd"/><path d="m167.622 69.657 5.587 10.215c.097.177.242.323.419.419l10.215 5.587c.732.4.732 1.451 0 1.851l-10.215 5.587c-.177.097-.323.242-.419.419l-5.587 10.215c-.4.732-1.451.732-1.851 0l-5.587-10.215c-.097-.177-.242-.323-.419-.419l-10.215-5.587c-.732-.4-.732-1.451 0-1.851l10.215-5.587c.177-.097.323-.242.419-.419l5.587-10.215c.399-.732 1.45-.732 1.851 0z" fill="#fdf385"/></g></svg>